<svg
  width="176"
  height="30"
  viewBox="0 0 176 30"
  fill="none"
  xmlns="http://www.w3.org/2000/svg"
>
  <path
    fill-rule="evenodd"
    clip-rule="evenodd"
    d="M30.9387 0.0619841C29.1921 -0.174835 27.4881 0.2636 25.5837 1.4349C23.4954 2.723 21.5784 4.47994 19.89 6.65799C19.363 7.33644 18.8679 8.0389 18.3914 8.73976L18.3903 8.73842C17.9138 8.03757 17.4215 7.33644 16.8945 6.65799C15.2061 4.48021 13.2891 2.723 11.2008 1.4349C9.29642 0.2636 7.59269 -0.174835 5.84582 0.0619841C2.48434 0.513487 0.112608 4.04817 0.0053596 7.06602C-0.0789072 9.45821 0.848028 11.4426 1.55127 12.7259C2.87886 15.1467 4.93242 17.5026 7.55209 19.7724C7.5355 19.8316 7.44561 20.0905 7.42161 20.1561C6.66857 22.2014 6.38844 24.1287 6.7582 26.3206C7.178 28.8091 9.14831 30.2591 11.5428 29.9615C12.9347 29.7881 14.0846 29.1313 15.131 28.22C16.4463 27.0746 17.4805 25.6905 18.3924 24.205C19.3043 25.6905 20.3384 27.0746 21.6538 28.22C22.7 29.131 23.8498 29.7881 25.242 29.9615C27.6365 30.2594 29.6068 28.8091 30.0266 26.3206C30.3963 24.1287 30.1162 22.2016 29.3632 20.1561C29.3389 20.0903 29.2493 19.8316 29.2327 19.7724C31.8524 17.5023 33.9059 15.1464 35.2335 12.7259C35.9367 11.4426 36.8637 9.45821 36.7794 7.06602C36.6722 4.04817 34.3004 0.513487 30.9387 0.0619841Z"
    fill="white"
  />
  <path
    fill-rule="evenodd"
    clip-rule="evenodd"
    d="M114.057 15.5185C114.057 17.4037 113.751 18.9854 113.138 20.2655C112.525 21.5456 111.657 22.5057 110.533 23.1458C109.41 23.7858 108.099 24.1058 106.601 24.1058C104.592 24.1058 103.026 23.4749 101.902 22.2124C100.779 20.9507 100.217 19.0572 100.217 16.5319V1.11731H93.7822V17.3853C93.7822 20.2306 94.2843 22.5857 95.2888 24.4525C96.2926 26.3194 97.6802 27.7061 99.4511 28.6129C101.221 29.5196 103.264 29.973 105.58 29.973C107.69 29.973 109.631 29.4753 111.402 28.4795C112.578 27.8181 113.563 26.9711 114.364 25.9479V29.5996H120.441V1.11731H114.057V15.5185Z"
    fill="white"
  />
  <path
    fill-rule="evenodd"
    clip-rule="evenodd"
    d="M81.3288 0.400146C77.4566 0.400146 74.0971 2.36271 72.218 5.27681H72.0471C70.5097 2.06535 67.8335 0.400146 64.4169 0.400146C61.0572 0.400146 57.8117 2.06535 56.1603 4.74157H55.9325L55.6478 1.1138H49.4412V29.6001H56.2742V14.1973C56.2742 9.43955 58.5519 6.94201 61.9116 6.94201C64.9297 6.94201 66.5808 8.8451 66.5808 13.8404V29.6001H73.4141V14.1973C73.4141 9.38008 75.7488 6.94201 79.0513 6.94201C82.0123 6.94201 83.7776 8.90457 83.7776 13.8404V29.6001H90.6106V11.7589C90.6104 4.38474 86.9093 0.400146 81.3288 0.400146Z"
    fill="white"
  />
  <path
    fill-rule="evenodd"
    clip-rule="evenodd"
    d="M123.665 1.11731V6.68443H138.484L123.451 29.6023H147.898V23.7834H134.432L148.972 1.11731H123.665Z"
    fill="white"
  />
  <path
    fill-rule="evenodd"
    clip-rule="evenodd"
    d="M176 1.11731H150.693V6.68443H165.513L150.479 29.6023H174.927V23.7834H161.46L176 1.11731Z"
    fill="white"
  />
</svg>
